<svg width="25" height="25" viewBox="0 0 25 25" fill="none" xmlns="http://www.w3.org/2000/svg">
<path d="M15.6395 8.27744C15.527 8.4715 15.3855 8.64683 15.2195 8.79776C14.3064 9.6387 12.8842 9.57963 12.0424 8.66745L10.3427 6.82245L10.3277 6.88714C10.1937 7.46933 9.83368 7.97369 9.32743 8.28965C7.52368 9.41371 6.44839 11.4087 6.50191 13.5332C6.55535 15.6585 7.7291 17.5964 9.58711 18.6284C11.4462 19.6606 13.7113 19.6315 15.5429 18.5534C17.3748 17.4752 18.4997 15.5082 18.4997 13.3821C18.4885 11.3018 17.4086 9.37352 15.6395 8.27744ZM14.6552 15.2226H11.8445C11.4311 15.2226 11.0945 14.8869 11.0945 14.4726V11.0274C11.0945 10.6139 11.4311 10.2774 11.8445 10.2774C12.2589 10.2774 12.5945 10.6139 12.5945 11.0274V13.7226H14.6551C15.0686 13.7226 15.4051 14.0582 15.4051 14.4726C15.4051 14.8869 15.0686 15.2226 14.6552 15.2226Z" fill="#2F52A0"/>
<path d="M13.7251 4.46744L14.3326 3.92744C14.6419 3.65089 14.67 3.17651 14.3935 2.86619C14.1169 2.55587 13.6426 2.5287 13.3322 2.80525L11.3326 4.57244C11.1816 4.70557 11.0916 4.89399 11.0813 5.09463C11.071 5.29526 11.1413 5.49212 11.2772 5.64025L13.1298 7.65306V7.65212C13.411 7.9615 13.8891 7.98493 14.1985 7.70368C14.5079 7.42243 14.5304 6.9443 14.2501 6.63494L13.6379 5.96745H13.6369C15.9751 6.32464 18.0076 7.76464 19.1205 9.85065C20.2342 11.9375 20.2979 14.4274 19.293 16.5678C18.288 18.709 16.3323 20.2503 14.0158 20.7274C11.6993 21.2037 9.29263 20.5606 7.52455 18.9903C5.75549 17.4199 4.83103 15.1071 5.02975 12.7503C5.22944 10.3934 6.52788 8.26898 8.53495 7.01738C8.83589 6.78113 8.91089 6.35738 8.70933 6.03206C8.5087 5.70674 8.09526 5.5858 7.74932 5.74986C5.33516 7.25548 3.77516 9.81403 3.54188 12.6499C3.30938 15.4857 4.43063 18.2647 6.56709 20.1443C8.70364 22.024 11.6023 22.7824 14.3858 22.19C17.1693 21.5975 19.5074 19.7235 20.6932 17.1368C21.8782 14.5503 21.7714 11.5548 20.4036 9.06028C19.0348 6.56476 16.5684 4.86412 13.7491 4.4722L13.7251 4.46744Z" fill="#2F52A0"/>
</svg>
