<svg width="19" height="18" viewBox="0 0 19 18" fill="none" xmlns="http://www.w3.org/2000/svg">
<path d="M17.5306 16.0622H9.35995L18.2091 7.20715C18.5917 6.82364 18.5917 6.2023 18.2091 5.8195L12.6805 0.286468C12.293 -0.0850727 11.6812 -0.0850727 11.2937 0.286468L0.780049 10.8078C0.403838 11.1913 0.407348 11.807 0.788487 12.1863L6.31644 17.7186C6.49998 17.9044 6.75033 18.0085 7.01052 18.0078C7.0288 18.0078 7.04568 18.0071 7.06186 18.0057L17.5298 18.0078H17.5305C18.0664 18.0064 18.5002 17.5715 18.5002 17.0353C18.5002 16.4984 18.0665 16.0636 17.5306 16.0622ZM5.63078 8.72844L11.9872 2.36297L16.134 6.51324L9.77706 12.8738L5.63078 8.72844ZM8.39089 14.2615L7.01117 15.6428L2.86363 11.4932L4.24405 10.1119L8.39089 14.2615Z" fill="white"/>
</svg>
