<svg width="16" height="16" viewBox="0 0 16 16" fill="none" xmlns="http://www.w3.org/2000/svg">
<path d="M8 0C3.57369 0 0 3.57369 0 8C0 12.4263 3.57369 16 8 16C12.4263 16 16 12.4263 16 8C16 3.57369 12.4263 0 8 0ZM11.4848 10.1515C11.8404 10.507 11.8404 11.0938 11.4848 11.4667C11.307 11.6445 11.0758 11.7334 10.8272 11.7334C10.5786 11.7334 10.3473 11.6445 10.1695 11.4667L8.05362 9.3334L5.92028 11.4667C5.74251 11.6445 5.51125 11.7334 5.26265 11.7334C5.01404 11.7334 4.78279 11.6445 4.60501 11.4667C4.24946 11.1112 4.24946 10.5244 4.60501 10.1515L6.72021 8.03627L4.6043 5.90222C4.24875 5.54667 4.24875 4.95986 4.6043 4.58695C4.95986 4.2314 5.54667 4.2314 5.91957 4.58695L8.03477 6.70215L10.15 4.58695C10.5055 4.2314 11.0923 4.2314 11.4652 4.58695C11.8208 4.94251 11.8208 5.52932 11.4652 5.90222L9.35129 8.03556L11.4848 10.1515Z" fill="#0079FF"/>
</svg>
