<svg width="16" height="14" viewBox="0 0 16 14" fill="none" xmlns="http://www.w3.org/2000/svg">
<path d="M16 6.53087C16 6.30605 15.9187 6.10196 15.7553 5.95926L12.7346 2.91874C12.4077 2.59187 11.8975 2.59187 11.5714 2.91874C11.2446 3.24561 11.2446 3.75583 11.5714 4.08188L13.2041 5.7146H5.102C4.65317 5.7146 4.28564 6.08212 4.28564 6.53095C4.28564 6.97979 4.65317 7.34731 5.102 7.34731H13.225L11.5922 8.98003C11.2654 9.3069 11.2654 9.81712 11.5922 10.1432C11.7557 10.3066 11.9598 10.3879 12.1639 10.3879C12.368 10.3879 12.572 10.3066 12.7355 10.1432L15.7562 7.12245C15.9188 6.95981 16 6.75568 16 6.53087Z" fill="white"/>
<path d="M3.02073 1.63271H8.16357C8.61241 1.63271 8.97993 1.26519 8.97993 0.816357C8.97993 0.367524 8.61241 0 8.16357 0H3.02073C1.36728 0 0 1.36724 0 3.02073V10.0212C0 11.6946 1.36724 13.0617 3.02073 13.0617H8.16357C8.61241 13.0617 8.97993 12.6942 8.97993 12.2454C8.97993 11.7965 8.61241 11.429 8.16357 11.429H3.02073C2.24502 11.429 1.63276 10.796 1.63276 10.041V3.02077C1.63276 2.2658 2.26576 1.63271 3.02073 1.63271Z" fill="white"/>
</svg>
