<svg width="18" height="18" viewBox="0 0 18 18" fill="none" xmlns="http://www.w3.org/2000/svg">
<path d="M17.2118 12.6831C18.3687 10.1028 18.2459 7.12787 16.8796 4.65191C15.5133 2.17477 13.0612 0.484889 10.2607 0.0890729C7.4601 -0.307894 4.6365 0.636254 2.63636 2.63639C0.636227 4.63653 -0.307838 7.4603 0.0890455 10.2608C0.484918 13.0614 2.17472 15.5133 4.65188 16.8796C7.12792 18.2459 10.1029 18.3687 12.683 17.2119L15.136 17.9137H15.1371C15.9212 18.1374 16.7656 17.9192 17.3423 17.3423C17.9191 16.7655 18.1374 15.9212 17.9137 15.1371L17.2118 12.6831ZM13.0229 14.9738C12.6676 14.8751 12.2871 14.9102 11.956 15.0747C10.7958 15.6427 9.49637 15.862 8.21451 15.7063C6.53238 15.5045 4.98959 14.6755 3.89197 13.386C2.7932 12.0964 2.22081 10.4406 2.2888 8.74846C2.35679 7.05648 3.05969 5.45112 4.25713 4.25356C5.45458 3.05601 7.05887 2.35322 8.75204 2.28633C10.444 2.21834 12.0999 2.79075 13.3895 3.8884C14.6791 4.98607 15.507 6.53004 15.7099 8.21094C15.8645 9.49392 15.6452 10.7933 15.0782 11.9535C14.9138 12.2836 14.8776 12.6641 14.9774 13.0205L15.7548 15.7542L13.0229 14.9738Z" fill="white"/>
<path d="M7.05216 7.61381C7.05216 9.11062 4.8064 9.11062 4.8064 7.61381C4.8064 6.11701 7.05216 6.11701 7.05216 7.61381Z" fill="white"/>
<path d="M13.2282 7.61381C13.2282 9.11062 10.9824 9.11062 10.9824 7.61381C10.9824 6.11701 13.2282 6.11701 13.2282 7.61381Z" fill="white"/>
<path d="M10.6008 9.85889H7.43709C7.21229 9.85889 7.00944 9.99267 6.92062 10.1988C6.82302 10.4477 6.77258 10.7142 6.77148 10.9818C6.77697 12.1057 7.61146 13.0521 8.72555 13.1979C9.83965 13.3438 10.8902 12.6441 11.1841 11.5597C11.308 11.1101 11.2838 10.6331 11.1139 10.1988C11.0261 9.99266 10.8245 9.85998 10.6008 9.85889Z" fill="white"/>
</svg>
