<svg width="16" height="16" viewBox="0 0 16 16" fill="none" xmlns="http://www.w3.org/2000/svg">
<path d="M8 0C5.87828 0 3.84372 0.842968 2.34367 2.34367C0.842968 3.84362 0 5.87828 0 8C0 10.1217 0.842968 12.1563 2.34367 13.6563C3.84362 15.157 5.87828 16 8 16C10.1217 16 12.1563 15.157 13.6563 13.6563C15.157 12.1564 16 10.1217 16 8C16 5.87828 15.157 3.84372 13.6563 2.34367C12.1564 0.842968 10.1217 0 8 0ZM4.79985 13.5356V12.7998C4.79985 12.3581 5.15834 11.9996 5.60008 11.9996H10.3999C10.6122 11.9996 10.8154 12.0844 10.9654 12.2344C11.1154 12.3844 11.2002 12.5876 11.2002 12.7998V13.5356C10.2282 14.1018 9.12432 14.3995 8 14.3995C6.87568 14.3995 5.77191 14.1018 4.79985 13.5356ZM12.7436 12.2794V12.2801C12.4999 11.1814 11.5256 10.3992 10.3999 10.3999H5.60008C4.47436 10.3992 3.50005 11.1814 3.25641 12.2801C2.14119 11.0486 1.54872 9.43245 1.60346 7.77266C1.6582 6.11297 2.35644 4.53948 3.5497 3.38464C4.74367 2.22968 6.33956 1.5847 8.00012 1.5847C9.66067 1.5847 11.2565 2.22968 12.4505 3.38464C13.6437 4.5396 14.342 6.11307 14.3968 7.77266C14.4515 9.43235 13.859 11.0485 12.7438 12.2801L12.7436 12.2794Z" fill="white"/>
<path d="M7.99992 3.2002C7.15094 3.2002 6.33721 3.53768 5.73727 4.13766C5.13733 4.73764 4.7998 5.55137 4.7998 6.40031C4.7998 7.24854 5.13729 8.06302 5.73727 8.66296C6.33725 9.2629 7.15098 9.59968 7.99992 9.59968C8.84886 9.59968 9.66262 9.26294 10.2626 8.66296C10.8625 8.06298 11.2 7.2485 11.2 6.40031C11.2 5.55133 10.8625 4.73761 10.2626 4.13766C9.66259 3.53772 8.84886 3.2002 7.99992 3.2002ZM7.99992 8.00004C7.35269 8.00004 6.7692 7.61006 6.52172 7.01233C6.27422 6.41459 6.41073 5.72612 6.86896 5.26864C7.32644 4.81116 8.01417 4.67465 8.6119 4.92215C9.21038 5.16965 9.59961 5.75312 9.59961 6.40035C9.59961 6.82408 9.43162 7.23132 9.13088 7.53131C8.83089 7.8313 8.4244 8.00004 7.99992 8.00004Z" fill="white"/>
</svg>
