<svg width="14" height="14" viewBox="0 0 14 14" fill="none" xmlns="http://www.w3.org/2000/svg">
<path d="M12.6177 3.16323L8.78516 0.55114C8.2588 0.192259 7.63672 0 7.00012 0C6.36351 0 5.74145 0.192262 5.21508 0.55114L1.38258 3.16323C0.514407 3.75453 -0.00339573 4.73805 1.67627e-05 5.78823V11.3749C1.67627e-05 12.8249 1.17494 13.9999 2.62501 13.9999H11.375C12.8251 13.9999 14 12.8249 14 11.3749V5.78145C14.0009 4.73383 13.4832 3.75289 12.6177 3.16323ZM12.2502 11.3749C12.2502 11.6073 12.1579 11.8295 11.9939 11.9935C11.8298 12.1576 11.6076 12.2499 11.3752 12.2499H2.62523C2.1416 12.2499 1.75023 11.8585 1.75023 11.3749V5.78145C1.75023 5.31234 1.9818 4.87399 2.36888 4.60908L6.20203 1.99699C6.68311 1.66801 7.31715 1.66801 7.79823 1.99699L11.6314 4.60908C12.0185 4.87396 12.25 5.31232 12.25 5.78145L12.2502 11.3749Z" fill="white"/>
<path d="M9.18762 8.74988H4.81262C4.32899 8.74988 3.93762 9.14124 3.93762 9.62488C3.93762 10.1085 4.32899 10.4999 4.81262 10.4999H9.18762C9.67125 10.4999 10.0626 10.1085 10.0626 9.62488C10.0626 9.14124 9.67125 8.74988 9.18762 8.74988Z" fill="white"/>
</svg>
