<svg width="20" height="20" viewBox="0 0 20 20" fill="none" xmlns="http://www.w3.org/2000/svg">
<g clip-path="url(#clip0_10_165)">
<path d="M7.5 17.5V12.5C7.5 12.058 7.6756 11.6341 7.98816 11.3215C8.30072 11.0089 8.72464 10.8333 9.16667 10.8333H10.8333C11.3708 10.8333 11.8483 11.0875 12.1533 11.4833" stroke="#A7A9B1" stroke-width="2" stroke-linecap="round" stroke-linejoin="round"/>
<path d="M16.6667 9.16667L10 2.5L2.5 10H4.16667V15.8333C4.16667 16.2754 4.34226 16.6993 4.65482 17.0118C4.96738 17.3244 5.39131 17.5 5.83333 17.5H9.16667" stroke="#A7A9B1" stroke-width="2" stroke-linecap="round" stroke-linejoin="round"/>
<path d="M15.35 13.0083C15.5125 12.8458 15.7054 12.7169 15.9178 12.629C16.1301 12.541 16.3577 12.4957 16.5875 12.4957C16.8173 12.4957 17.0449 12.541 17.2572 12.629C17.4696 12.7169 17.6625 12.8458 17.825 13.0083C17.9875 13.1708 18.1164 13.3638 18.2044 13.5761C18.2923 13.7884 18.3376 14.016 18.3376 14.2458C18.3376 14.4757 18.2923 14.7032 18.2044 14.9156C18.1164 15.1279 17.9875 15.3208 17.825 15.4833L15 18.3333H12.5V15.8333L15.35 13.0083Z" stroke="#A7A9B1" stroke-width="2" stroke-linecap="round" stroke-linejoin="round"/>
</g>
<defs>
<clipPath id="clip0_10_165">
<rect width="20" height="20" fill="white"/>
</clipPath>
</defs>
</svg>
