<svg width="28" height="28" viewBox="0 0 28 28" fill="none" xmlns="http://www.w3.org/2000/svg">
<g clip-path="url(#clip0_321_1972)">
<path d="M18.9987 0.700196H9.00183C6.80011 0.699103 4.68815 1.5741 3.13051 3.13051C1.5741 4.68801 0.699104 6.79991 0.700196 9.00183V18.9987C0.699103 21.2004 1.5741 23.3124 3.13051 24.87C4.68801 26.4264 6.79991 27.3014 9.00183 27.3003H18.9987C21.2004 27.3014 23.3124 26.4264 24.87 24.87C26.4264 23.3125 27.3014 21.2006 27.3003 18.9987V9.00183C27.3014 6.80011 26.4264 4.68815 24.87 3.13051C23.3125 1.5741 21.2006 0.699104 18.9987 0.700196ZM20.5387 15.1684L15.4987 20.2084C14.8796 20.8263 13.8766 20.8263 13.2587 20.2084C12.6396 19.5893 12.6396 18.5863 13.2587 17.9684L15.6802 15.5687H8.5797C7.70689 15.5687 7.00034 14.861 7.00034 13.9893C7.00034 13.1165 7.70689 12.4099 8.5797 12.4099H15.6463L13.2642 10.0245C12.6451 9.40543 12.6451 8.40244 13.2642 7.78448C13.8821 7.16543 14.8851 7.16543 15.5042 7.78448L20.5442 12.8245C20.8537 13.1351 21.0199 13.5617 21.0003 14.0003V14.0506C21.0013 14.4695 20.8351 14.872 20.5387 15.1684Z" fill="url(#paint0_linear_321_1972)"/>
</g>
<defs>
<linearGradient id="paint0_linear_321_1972" x1="14.0003" y1="0.700195" x2="14.0003" y2="27.3003" gradientUnits="userSpaceOnUse">
<stop stop-color="#48F1A3"/>
<stop offset="1" stop-color="#0079FF"/>
</linearGradient>
<clipPath id="clip0_321_1972">
<rect width="28" height="28" fill="white"/>
</clipPath>
</defs>
</svg>
