<svg width="16" height="15" viewBox="0 0 16 15" fill="none" xmlns="http://www.w3.org/2000/svg">
<path d="M10.4797 1.415C9.95716 0.539015 9.0305 0 8.00318 0C6.97516 0 6.04843 0.52257 5.52663 1.415L0.421393 9.97416C-0.13474 10.8837 -0.13474 11.9618 0.387828 12.8884C0.910398 13.798 1.85351 14.3541 2.8979 14.3541H13.1084C14.17 14.3541 15.0967 13.8151 15.6185 12.8884C16.141 11.9789 16.1239 10.8838 15.5849 9.97349L10.4797 1.415ZM8.00318 12.1137C7.36281 12.1137 6.84091 11.5912 6.84091 10.9515C6.84091 10.3111 7.36348 9.7892 8.00318 9.7892C8.64356 9.7892 9.16545 10.3118 9.16545 10.9515C9.16545 11.5912 8.64354 12.1137 8.00318 12.1137ZM9.21613 4.22852L8.87916 8.07012C8.86205 8.30573 8.74425 8.5249 8.55931 8.67694C8.40794 8.81186 8.20523 8.87898 7.98674 8.87898H7.9025C7.48128 8.84542 7.1272 8.50845 7.09364 8.07012L6.75667 4.22852C6.7231 3.90866 6.8238 3.58814 7.04296 3.33541C7.26211 3.08269 7.54841 2.93132 7.86826 2.89709C8.20523 2.86352 8.50863 2.96422 8.76136 3.18337C9.01409 3.38542 9.16545 3.68883 9.19969 4.00868C9.23325 4.09358 9.23324 4.16138 9.21613 4.22852Z" fill="#1F4D90"/>
</svg>
