<svg width="16" height="15" viewBox="0 0 16 15" fill="none" xmlns="http://www.w3.org/2000/svg">
<path d="M7.99995 10.5356C8.53851 10.5349 8.97461 10.0988 8.97534 9.56021V3.05804L12.0589 5.62718C12.4723 5.97181 13.087 5.91549 13.4323 5.50205C13.777 5.0879 13.7214 4.47324 13.3072 4.12787L8.62412 0.225557C8.57509 0.190434 8.52314 0.160433 8.46826 0.134822C8.43314 0.111407 8.39582 0.0901866 8.3585 0.0718927C8.13094 -0.0239642 7.8741 -0.0239642 7.64652 0.0718927C7.60847 0.0901859 7.57189 0.111407 7.53676 0.134822C7.48115 0.160433 7.42774 0.190434 7.37725 0.226288L2.69417 4.1286C2.37953 4.39128 2.26318 4.82301 2.40221 5.20863C2.54124 5.59425 2.9071 5.85182 3.31687 5.85255C3.54518 5.85182 3.76542 5.77206 3.94103 5.62645L7.02456 3.05807V9.56023C7.02529 10.0988 7.4614 10.5349 7.99995 10.5356Z" fill="#0079FF"/>
<path d="M15.0246 9.36475C14.4861 9.36621 14.0499 9.80231 14.0492 10.3409V12.487H1.95078V10.3409C1.95078 9.80158 1.51394 9.36475 0.97539 9.36475C0.436837 9.36475 0 9.80158 0 10.3409V13.4632V13.4624C0.000731683 14.001 0.436837 14.4371 0.97539 14.4386H15.0246C15.5632 14.4371 15.9993 14.001 16 13.4624V10.3409C15.9993 9.80233 15.5632 9.36621 15.0246 9.36475Z" fill="#0079FF"/>
</svg>
