<svg width="16" height="16" viewBox="0 0 16 16" fill="none" xmlns="http://www.w3.org/2000/svg">
<path fill-rule="evenodd" clip-rule="evenodd" d="M14.6567 1.99055C14.6567 1.62242 14.3579 1.32367 13.9898 1.32367H9.27605C8.90792 1.32367 8.60917 1.62242 8.60917 1.99055C8.60917 2.35868 8.90792 2.65743 9.27605 2.65743H12.3804L7.86165 7.17615C7.60103 7.43677 7.60103 7.85865 7.86165 8.11865C8.12228 8.37927 8.54415 8.37927 8.80415 8.11865L13.3229 3.59993V6.70425C13.3229 7.07237 13.6216 7.37113 13.9897 7.37113C14.3579 7.37113 14.6566 7.07237 14.6566 6.70425L14.6567 1.99055ZM5.17237 14.6669H10.8274C11.3643 14.6669 11.8068 14.6669 12.1674 14.6375C12.5424 14.6069 12.8868 14.5412 13.2099 14.3762C13.7118 14.1206 14.1193 13.7125 14.3755 13.2106C14.5405 12.8869 14.6062 12.5425 14.6368 12.1681C14.6662 11.8075 14.6662 11.3644 14.6662 10.8275V10.3331C14.6662 9.965 14.3674 9.66625 13.9993 9.66625C13.6312 9.66625 13.3324 9.965 13.3324 10.3331V10.8C13.3324 11.3713 13.3318 11.7594 13.3074 12.0594C13.2837 12.3519 13.2399 12.5013 13.1868 12.6056C13.0593 12.8563 12.8549 13.0606 12.6043 13.1881C12.4999 13.2413 12.3505 13.2844 12.058 13.3088C11.758 13.3331 11.3699 13.3338 10.7986 13.3338H5.19865C4.6274 13.3338 4.23927 13.3331 3.93927 13.3088C3.64678 13.285 3.4974 13.2413 3.39302 13.1881C3.14239 13.0606 2.93801 12.8563 2.81052 12.6056C2.7574 12.5013 2.71427 12.3519 2.69052 12.0594C2.66615 11.7594 2.66552 11.3713 2.66552 10.8V5.20001C2.66552 4.62876 2.66615 4.24063 2.69052 3.94063C2.71427 3.64813 2.7574 3.49876 2.81052 3.39438C2.93865 3.14375 3.14239 2.93937 3.39302 2.81188C3.49739 2.75875 3.64676 2.71563 3.93927 2.69188C4.23927 2.6675 4.6274 2.66688 5.19865 2.66688H5.66553C6.03366 2.66688 6.33241 2.36813 6.33241 2C6.33241 1.63187 6.03366 1.33312 5.66553 1.33312H5.17116C4.63428 1.33312 4.19179 1.33312 3.83054 1.36249C3.45553 1.39312 3.11116 1.45874 2.78804 1.62374C2.28617 1.87937 1.87804 2.28749 1.62241 2.78937C1.45742 3.11312 1.39179 3.4575 1.36116 3.83187C1.33179 4.19249 1.33179 4.63561 1.33179 5.17249V10.8275C1.33179 11.3644 1.33179 11.8069 1.36116 12.1682C1.39179 12.5432 1.45741 12.8875 1.62241 13.2107C1.87804 13.7125 2.28615 14.1207 2.78804 14.3763C3.11179 14.5413 3.45617 14.6069 3.83054 14.6375C4.19116 14.6669 4.63428 14.6669 5.17116 14.6669L5.17237 14.6669Z" fill="white"/>
</svg>
