<svg width="40" height="40" viewBox="0 0 40 40" fill="none" xmlns="http://www.w3.org/2000/svg">
<path d="M25.9876 20C25.9876 20.3312 25.8564 20.65 25.622 20.8844C25.3876 21.1187 25.0689 21.25 24.7376 21.25H17.7624L20.6249 24.1125C20.8608 24.3468 20.9952 24.6671 20.9952 25C20.9952 25.3328 20.8608 25.6531 20.6249 25.8875C20.389 26.1219 20.0702 26.2516 19.7374 26.25C19.4046 26.2516 19.0858 26.1219 18.8499 25.8875L14.7375 21.7627C13.7687 20.7877 13.7687 19.2127 14.7375 18.2377L18.8499 14.1129C19.3405 13.6223 20.1342 13.6223 20.6249 14.1129C21.1155 14.6035 21.1155 15.3973 20.6249 15.8879L17.7624 18.7504H24.7376C25.0688 18.7504 25.3876 18.8816 25.6219 19.116C25.8563 19.3504 25.9876 19.6688 25.9876 20ZM37.5 20C37.5 24.6408 35.6562 29.092 32.3752 32.3752C29.0924 35.6564 24.6408 37.5 20 37.5C15.3592 37.5 10.908 35.6562 7.6248 32.3752C4.34356 29.0924 2.5 24.6408 2.5 20C2.5 15.3592 4.34376 10.908 7.6248 7.6248C10.9076 4.34356 15.3592 2.5 20 2.5C24.6408 2.5 29.092 4.34376 32.3752 7.6248C35.6564 10.9076 37.5 15.3592 37.5 20ZM35 20C35 16.0219 33.4203 12.2064 30.6064 9.3936C27.7939 6.57952 23.9784 5 20 5C16.0216 5 12.2064 6.57968 9.3936 9.3936C6.57952 12.2061 5 16.0216 5 20C5 23.9784 6.57968 27.7936 9.3936 30.6064C12.2061 33.4205 16.0216 35 20 35C23.9784 35 27.7936 33.4203 30.6064 30.6064C33.4205 27.7939 35 23.9784 35 20Z" fill="white"/>
</svg>
